<svg width="628" height="422" viewBox="0 0 628 422" fill="none" xmlns="http://www.w3.org/2000/svg">
<rect width="628" height="422" fill="#1E1E1E"/>
<rect width="628" height="422" fill="#D9D9D9"/>
<path class="leg7" d="M201 291C201 282.163 208.163 275 217 275H274C282.837 275 290 282.163 290 291V348C290 356.837 282.837 364 274 364H217C208.163 364 201 356.837 201 348V291Z" fill="#C0B1B1"/>
<path class="leg4" d="M98 75C98 66.1634 105.163 59 114 59H234C242.837 59 250 66.1634 250 75V132C250 140.837 242.837 148 234 148H114C105.163 148 98 140.837 98 132V75Z" fill="#C0B1B1"/>
<path class="leg3" d="M280 75C280 66.1634 287.163 59 296 59H353C361.837 59 369 66.1634 369 75V132C369 140.837 361.837 148 353 148H296C287.163 148 280 140.837 280 132V75Z" fill="#C0B1B1"/>
<path class="leg2" d="M398 75C398 66.1634 405.163 59 414 59H471C479.837 59 487 66.1634 487 75V132C487 140.837 479.837 148 471 148H414C405.163 148 398 140.837 398 132V75Z" fill="#C0B1B1"/>
<path class="leg1" d="M517 75C517 66.1634 524.163 59 533 59H590C598.837 59 606 66.1634 606 75V132C606 140.837 598.837 148 590 148H533C524.163 148 517 140.837 517 132V75Z" fill="#C0B1B1"/>
<path class="leg5" d="M74 183C74 174.163 81.1634 167 90 167H147C155.837 167 163 174.163 163 183V240C163 248.837 155.837 256 147 256H90C81.1634 256 74 248.837 74 240V183Z" fill="#C0B1B1"/>
<path class="leg8" d="M201 183C201 174.163 208.163 167 217 167H274C282.837 167 290 174.163 290 183V240C290 248.837 282.837 256 274 256H217C208.163 256 201 248.837 201 240V183Z" fill="#C0B1B1"/>
<path class="leg6" d="M74 291C74 282.163 81.1634 275 90 275H147C155.837 275 163 282.163 163 291V348C163 356.837 155.837 364 147 364H90C81.1634 364 74 356.837 74 348V291Z" fill="#C0B1B1"/>
<path d="M564.086 97.676C564.086 97.676 563.942 102.968 563.654 113.552L566.894 113.84C566.894 114.512 566.69 115.232 566.282 116H556.814L556.742 114.776C557.558 114.536 558.986 114.236 561.026 113.876C560.978 112.292 560.918 109.928 560.846 106.784C560.774 103.616 560.714 101.24 560.666 99.656C558.722 100.544 557.366 101.024 556.598 101.096C556.19 100.424 555.962 99.68 555.914 98.864L562.934 96.488C563.654 97.016 564.038 97.412 564.086 97.676Z" fill="white"/>
<path d="M166.142 404.848C167.486 404.848 168.39 404.432 168.854 403.6C169.334 402.752 169.574 401.552 169.574 400C169.574 397.536 169.03 395.992 167.942 395.368C167.494 395.112 166.862 394.984 166.046 394.984C165.246 394.984 164.486 395.152 163.766 395.488C163.126 396.72 162.806 398.152 162.806 399.784C162.806 401.352 163.014 402.56 163.43 403.408C163.91 404.368 164.814 404.848 166.142 404.848ZM160.598 400C160.598 397.968 161.062 396.384 161.99 395.248C162.918 394.096 164.35 393.52 166.286 393.52C168.222 393.52 169.622 394.048 170.486 395.104C171.35 396.144 171.782 397.688 171.782 399.736C171.782 401.784 171.318 403.392 170.39 404.56C169.478 405.728 168.086 406.312 166.214 406.312C164.342 406.312 162.934 405.768 161.99 404.68C161.062 403.592 160.598 402.032 160.598 400ZM179.704 404.416C180.168 404.416 180.688 404.32 181.264 404.128C181.84 403.92 182.312 403.672 182.68 403.384C182.616 399.976 182.56 397.392 182.512 395.632C181.52 395.632 180.784 395.536 180.304 395.344L180.4 394.096C181.76 393.856 182.824 393.736 183.592 393.736C184.376 393.736 184.872 393.752 185.08 393.784C185.08 394.072 185.032 394.456 184.936 394.936C184.856 395.416 184.8 395.68 184.768 395.728L184.48 404.296C185.328 404.344 186.016 404.44 186.544 404.584L186.496 405.808C185.792 406.032 185.112 406.144 184.456 406.144C183.8 406.144 183.4 406.136 183.256 406.12C182.952 405.512 182.776 404.952 182.728 404.44C181.944 405.032 181.216 405.488 180.544 405.808C179.888 406.128 179.456 406.288 179.248 406.288C177.84 406.288 176.816 405.912 176.176 405.16C175.552 404.392 175.24 403.272 175.24 401.8C175.24 401.784 175.312 399.736 175.456 395.656C174.528 395.656 173.672 395.552 172.888 395.344L172.984 394.096C174.344 393.856 175.4 393.736 176.152 393.736C176.904 393.736 177.384 393.752 177.592 393.784C177.592 394.168 177.544 394.592 177.448 395.056C177.352 395.52 177.296 395.744 177.28 395.728L177.304 400.912C177.304 402.128 177.456 403.016 177.76 403.576C178.064 404.136 178.712 404.416 179.704 404.416ZM189.562 404.512L189.37 395.464H187.522L187.45 394.624C187.61 394.512 188.074 394.304 188.842 394L190.81 390.928C191.13 390.96 191.378 391.04 191.554 391.168L191.53 393.808C192.73 393.808 193.714 393.888 194.482 394.048C194.482 394.48 194.346 394.952 194.074 395.464H191.482C191.45 397.384 191.418 400.296 191.386 404.2C192.282 404.248 193.178 404.408 194.074 404.68L194.05 405.52C193.826 405.664 193.25 405.832 192.322 406.024C191.41 406.216 190.658 406.312 190.066 406.312C189.986 406.184 189.882 405.912 189.754 405.496C189.626 405.064 189.562 404.736 189.562 404.512Z" fill="#857F7F"/>
<path d="M26.6424 106.848C27.9864 106.848 28.8904 106.432 29.3544 105.6C29.8344 104.752 30.0744 103.552 30.0744 102C30.0744 99.536 29.5304 97.992 28.4424 97.368C27.9944 97.112 27.3624 96.984 26.5464 96.984C25.7464 96.984 24.9864 97.152 24.2664 97.488C23.6264 98.72 23.3064 100.152 23.3064 101.784C23.3064 103.352 23.5144 104.56 23.9304 105.408C24.4104 106.368 25.3144 106.848 26.6424 106.848ZM21.0984 102C21.0984 99.968 21.5624 98.384 22.4904 97.248C23.4184 96.096 24.8504 95.52 26.7864 95.52C28.7224 95.52 30.1224 96.048 30.9864 97.104C31.8504 98.144 32.2824 99.688 32.2824 101.736C32.2824 103.784 31.8184 105.392 30.8904 106.56C29.9784 107.728 28.5864 108.312 26.7144 108.312C24.8424 108.312 23.4344 107.768 22.4904 106.68C21.5624 105.592 21.0984 104.032 21.0984 102ZM40.2044 106.416C40.6684 106.416 41.1884 106.32 41.7644 106.128C42.3404 105.92 42.8124 105.672 43.1804 105.384C43.1164 101.976 43.0604 99.392 43.0124 97.632C42.0204 97.632 41.2844 97.536 40.8044 97.344L40.9004 96.096C42.2604 95.856 43.3244 95.736 44.0924 95.736C44.8764 95.736 45.3724 95.752 45.5804 95.784C45.5804 96.072 45.5324 96.456 45.4364 96.936C45.3564 97.416 45.3004 97.68 45.2684 97.728L44.9804 106.296C45.8284 106.344 46.5164 106.44 47.0444 106.584L46.9964 107.808C46.2924 108.032 45.6124 108.144 44.9564 108.144C44.3004 108.144 43.9004 108.136 43.7564 108.12C43.4524 107.512 43.2764 106.952 43.2284 106.44C42.4444 107.032 41.7164 107.488 41.0444 107.808C40.3884 108.128 39.9564 108.288 39.7484 108.288C38.3404 108.288 37.3164 107.912 36.6764 107.16C36.0524 106.392 35.7404 105.272 35.7404 103.8C35.7404 103.784 35.8124 101.736 35.9564 97.656C35.0284 97.656 34.1724 97.552 33.3884 97.344L33.4844 96.096C34.8444 95.856 35.9004 95.736 36.6524 95.736C37.4044 95.736 37.8844 95.752 38.0924 95.784C38.0924 96.168 38.0444 96.592 37.9484 97.056C37.8524 97.52 37.7964 97.744 37.7804 97.728L37.8044 102.912C37.8044 104.128 37.9564 105.016 38.2604 105.576C38.5644 106.136 39.2124 106.416 40.2044 106.416ZM50.0619 106.512L49.8699 97.464H48.0219L47.9499 96.624C48.1099 96.512 48.5739 96.304 49.3419 96L51.3099 92.928C51.6299 92.96 51.8779 93.04 52.0539 93.168L52.0299 95.808C53.2299 95.808 54.2139 95.888 54.9819 96.048C54.9819 96.48 54.8459 96.952 54.5739 97.464H51.9819C51.9499 99.384 51.9179 102.296 51.8859 106.2C52.7819 106.248 53.6779 106.408 54.5739 106.68L54.5499 107.52C54.3259 107.664 53.7499 107.832 52.8219 108.024C51.9099 108.216 51.1579 108.312 50.5659 108.312C50.4859 108.184 50.3819 107.912 50.2539 107.496C50.1259 107.064 50.0619 106.736 50.0619 106.512Z" fill="#857F7F"/>
<path d="M113.737 320.516C113.713 320.708 113.701 321.152 113.701 321.848C113.701 322.544 113.773 323.336 113.917 324.224C114.061 325.112 114.313 326.048 114.673 327.032C115.033 327.992 115.597 328.772 116.365 329.372C117.133 329.972 118.045 330.272 119.101 330.272C120.781 330.272 122.005 329.708 122.773 328.58C123.541 327.452 123.925 325.964 123.925 324.116C123.925 322.268 123.601 320.876 122.953 319.94C122.329 318.98 121.117 318.5 119.317 318.5C117.517 318.5 115.657 319.172 113.737 320.516ZM119.497 316.268C121.897 316.268 123.781 316.952 125.149 318.32C126.541 319.664 127.237 321.68 127.237 324.368C127.237 327.032 126.469 329.048 124.933 330.416C123.421 331.784 121.441 332.468 118.993 332.468C116.617 332.468 114.613 331.544 112.981 329.696C112.141 328.76 111.481 327.44 111.001 325.736C110.521 324.008 110.281 322.112 110.281 320.048C110.281 317.984 110.545 316.184 111.073 314.648C111.601 313.112 112.297 311.828 113.161 310.796C114.049 309.74 115.069 308.84 116.221 308.096C118.405 306.656 120.793 305.936 123.385 305.936C123.673 306.224 123.817 306.86 123.817 307.844C120.601 308.084 118.153 309.104 116.473 310.904C114.817 312.68 113.857 315.236 113.593 318.572C114.265 317.948 115.213 317.408 116.437 316.952C117.661 316.496 118.681 316.268 119.497 316.268Z" fill="white"/>
<path d="M118.011 213.524C120.387 213.524 122.283 214.196 123.699 215.54C125.139 216.86 125.859 218.684 125.859 221.012C125.859 223.316 124.935 225.2 123.087 226.664C121.239 228.152 119.163 228.896 116.859 228.896C114.579 228.896 112.767 228.596 111.423 227.996C111.423 227.012 111.579 226.376 111.891 226.088C112.947 226.472 114.411 226.664 116.283 226.664C118.275 226.664 119.811 226.232 120.891 225.368C121.347 224.984 121.743 224.432 122.079 223.712C122.415 222.968 122.583 222.104 122.583 221.12C122.583 219.44 122.175 218.132 121.359 217.196C120.543 216.236 119.379 215.756 117.867 215.756C116.715 215.756 115.767 215.852 115.023 216.044C114.303 216.212 113.907 216.296 113.835 216.296C113.331 216.008 112.935 215.66 112.647 215.252L112.251 204.56H124.491C124.491 206.648 124.347 208.448 124.059 209.96C123.651 210.056 123.027 210.104 122.187 210.104C122.043 209.528 121.899 208.4 121.755 206.72H115.491L115.383 213.884C116.103 213.644 116.979 213.524 118.011 213.524Z" fill="white"/>
<path d="M237.942 314.216C237.942 313.64 237.978 313.076 238.05 312.524L251.514 312.56C251.994 313.04 252.234 313.688 252.234 314.504C250.674 319.28 249.198 323.648 247.806 327.608C246.414 331.544 245.31 334.676 244.494 337.004C243.582 336.884 242.934 336.656 242.55 336.32L248.994 314.72H241.578L240.678 319.112C239.742 319.112 239.046 319.064 238.59 318.968C238.158 317.576 237.942 315.992 237.942 314.216Z" fill="white"/>
<path d="M253.486 217.016C253.486 219.128 252.838 220.892 251.542 222.308C250.246 223.724 248.278 224.432 245.638 224.432C243.742 224.432 241.99 223.928 240.382 222.92C239.566 222.416 238.894 221.672 238.366 220.688C237.862 219.704 237.61 218.552 237.61 217.232C237.61 214.424 239.218 211.928 242.434 209.744L242.326 209.672C240.814 208.952 239.746 208.148 239.122 207.26C238.498 206.348 238.186 204.98 238.186 203.156C238.186 201.308 238.846 199.82 240.166 198.692C241.51 197.564 243.346 197 245.674 197C248.026 197 249.85 197.588 251.146 198.764C252.466 199.916 253.126 201.404 253.126 203.228C253.126 205.028 252.73 206.432 251.938 207.44C251.146 208.424 249.97 209.36 248.41 210.248C251.794 212.288 253.486 214.544 253.486 217.016ZM248.986 221.696C249.778 220.16 250.174 218.672 250.174 217.232C250.174 215.792 249.742 214.628 248.878 213.74C248.038 212.828 246.526 211.808 244.342 210.68C243.214 211.52 242.362 212.432 241.786 213.416C241.21 214.4 240.922 215.54 240.922 216.836C240.922 218.132 241.078 219.14 241.39 219.86C241.702 220.556 242.11 221.072 242.614 221.408C243.574 222.032 244.498 222.344 245.386 222.344C246.922 222.344 248.014 222.176 248.662 221.84L248.986 221.696ZM249.814 203.084C249.814 200.492 248.422 199.196 245.638 199.196C244.39 199.196 243.31 199.388 242.398 199.772C241.798 200.852 241.498 201.968 241.498 203.12C241.498 205.712 242.794 207.572 245.386 208.7C245.53 208.748 245.926 208.94 246.574 209.276C248.734 207.932 249.814 205.868 249.814 203.084Z" fill="white"/>
<path d="M176.764 112.436L176.404 99.404L168.52 112.508C172.168 112.46 174.916 112.436 176.764 112.436ZM179.824 96.56L179.464 112.436C180.352 112.436 181.66 112.46 183.388 112.508C183.388 113.516 183.268 114.248 183.028 114.704H179.428L179.176 120.716C178.816 120.788 178.456 120.824 178.096 120.824C177.736 120.824 177.4 120.776 177.088 120.68L176.8 114.704H165.892C165.604 114.296 165.46 113.876 165.46 113.444C165.46 112.988 165.472 112.748 165.496 112.724L175.072 96.56H179.824Z" fill="white"/>
<path d="M327.171 102.068C327.171 99.5 325.707 98.216 322.779 98.216C322.299 98.216 321.747 98.3 321.123 98.468L320.259 102.932C319.323 102.932 318.627 102.896 318.171 102.824C317.763 101.624 317.559 100.196 317.559 98.54C318.063 97.964 318.891 97.424 320.043 96.92C321.219 96.392 322.239 96.128 323.103 96.128C325.239 96.128 326.991 96.668 328.359 97.748C329.751 98.804 330.447 100.076 330.447 101.564C330.447 104.156 328.911 106.112 325.839 107.432C327.303 107.432 328.599 107.888 329.727 108.8C330.879 109.712 331.455 111.02 331.455 112.724C331.455 114.428 330.951 115.916 329.943 117.188C328.935 118.484 327.759 119.42 326.415 119.996C325.095 120.596 323.631 120.896 322.023 120.896C320.439 120.896 318.771 120.596 317.019 119.996C317.067 119.084 317.211 118.448 317.451 118.088C317.523 118.088 317.751 118.136 318.135 118.232C318.519 118.328 318.855 118.4 319.143 118.448C319.959 118.592 320.667 118.664 321.267 118.664C321.867 118.664 322.287 118.652 322.527 118.628C322.791 118.604 323.187 118.544 323.715 118.448C324.267 118.352 324.771 118.184 325.227 117.944C325.707 117.704 326.175 117.416 326.631 117.08C327.639 116.288 328.143 115.148 328.143 113.66C328.143 112.148 327.675 111.02 326.739 110.276C325.827 109.532 324.579 109.16 322.995 109.16C322.611 109.16 321.903 109.208 320.871 109.304C320.775 109.184 320.727 108.908 320.727 108.476C320.727 108.02 320.763 107.588 320.835 107.18L322.419 106.964C323.715 106.796 324.831 106.268 325.767 105.38C326.703 104.468 327.171 103.364 327.171 102.068Z" fill="white"/>
<path d="M446.692 110.456C446.86 110.432 447.064 110.42 447.304 110.42C447.736 110.42 448.156 110.48 448.564 110.6C448.852 112.04 448.996 113.84 448.996 116H436.396C436.108 115.496 435.964 115.052 435.964 114.668C435.964 114.26 435.976 114.008 436 113.912C440.968 109.184 443.644 106.616 444.028 106.208C444.412 105.776 444.796 105.14 445.18 104.3C445.588 103.46 445.792 102.62 445.792 101.78C445.792 100.916 445.456 100.124 444.784 99.404C444.136 98.684 443.14 98.324 441.796 98.324C441.052 98.324 440.416 98.396 439.888 98.54L439.024 102.968C438.784 102.992 438.52 103.004 438.232 103.004C437.944 103.004 437.512 102.956 436.936 102.86C436.552 101.828 436.348 100.4 436.324 98.576C436.924 98 437.776 97.46 438.88 96.956C440.008 96.428 441.076 96.164 442.084 96.164C444.196 96.164 445.888 96.704 447.16 97.784C448.456 98.84 449.104 100.004 449.104 101.276C449.104 102.908 448.756 104.324 448.06 105.524C447.388 106.724 446.26 107.996 444.676 109.34L439.852 113.444L439.96 113.876L446.26 113.84C446.38 112.208 446.524 111.08 446.692 110.456Z" fill="white"/>
<path d="M491.293 102.293C490.902 102.683 490.902 103.317 491.293 103.707L497.657 110.071C498.047 110.462 498.681 110.462 499.071 110.071C499.462 109.681 499.462 109.047 499.071 108.657L493.414 103L499.071 97.3431C499.462 96.9526 499.462 96.3195 499.071 95.9289C498.681 95.5384 498.047 95.5384 497.657 95.9289L491.293 102.293ZM517 102H492V104H517V102Z" fill="#A25E5E"/>
<path d="M117.293 167.707C117.683 168.098 118.317 168.098 118.707 167.707L125.071 161.343C125.462 160.953 125.462 160.319 125.071 159.929C124.681 159.538 124.047 159.538 123.657 159.929L118 165.586L112.343 159.929C111.953 159.538 111.319 159.538 110.929 159.929C110.538 160.319 110.538 160.953 110.929 161.343L117.293 167.707ZM117 148V167H119V148H117Z" fill="#A25E5E"/>
<path d="M245.553 275.833C246.013 275.528 246.139 274.907 245.833 274.447L240.856 266.948C240.551 266.488 239.93 266.363 239.47 266.668C239.01 266.974 238.884 267.594 239.19 268.054L243.614 274.72L236.948 279.144C236.488 279.449 236.363 280.07 236.668 280.53C236.974 280.99 237.594 281.116 238.054 280.81L245.553 275.833ZM150.802 256.98L244.802 275.98L245.198 274.02L151.198 255.02L150.802 256.98Z" fill="#A25E5E"/>
<path d="M117.293 275.707C117.683 276.098 118.317 276.098 118.707 275.707L125.071 269.343C125.462 268.953 125.462 268.319 125.071 267.929C124.681 267.538 124.047 267.538 123.657 267.929L118 273.586L112.343 267.929C111.953 267.538 111.319 267.538 110.929 267.929C110.538 268.319 110.538 268.953 110.929 269.343L117.293 275.707ZM117 256V275H119V256H117Z" fill="#A25E5E"/>
<path d="M244.293 383.707C244.683 384.098 245.317 384.098 245.707 383.707L252.071 377.343C252.462 376.953 252.462 376.319 252.071 375.929C251.681 375.538 251.047 375.538 250.657 375.929L245 381.586L239.343 375.929C238.953 375.538 238.319 375.538 237.929 375.929C237.538 376.319 237.538 376.953 237.929 377.343L244.293 383.707ZM244 364V383H246V364H244Z" fill="#A25E5E"/>
<path d="M117.293 383.707C117.683 384.098 118.317 384.098 118.707 383.707L125.071 377.343C125.462 376.953 125.462 376.319 125.071 375.929C124.681 375.538 124.047 375.538 123.657 375.929L118 381.586L112.343 375.929C111.953 375.538 111.319 375.538 110.929 375.929C110.538 376.319 110.538 376.953 110.929 377.343L117.293 383.707ZM117 364V383H119V364H117Z" fill="#A25E5E"/>
<path d="M254.293 102.293C253.902 102.683 253.902 103.317 254.293 103.707L260.657 110.071C261.047 110.462 261.681 110.462 262.071 110.071C262.462 109.681 262.462 109.047 262.071 108.657L256.414 103L262.071 97.3431C262.462 96.9526 262.462 96.3195 262.071 95.9289C261.681 95.5384 261.047 95.5384 260.657 95.9289L254.293 102.293ZM280 102H255V104H280V102Z" fill="#A25E5E"/>
<path d="M372.293 102.293C371.902 102.683 371.902 103.317 372.293 103.707L378.657 110.071C379.047 110.462 379.681 110.462 380.071 110.071C380.462 109.681 380.462 109.047 380.071 108.657L374.414 103L380.071 97.3431C380.462 96.9526 380.462 96.3195 380.071 95.9289C379.681 95.5384 379.047 95.5384 378.657 95.9289L372.293 102.293ZM398 102H373V104H398V102Z" fill="#A25E5E"/>
<path d="M230.844 256.536C231.14 256.07 231.002 255.452 230.536 255.156L222.937 250.333C222.471 250.037 221.853 250.175 221.557 250.642C221.261 251.108 221.399 251.726 221.865 252.022L228.62 256.309L224.333 263.063C224.037 263.529 224.175 264.147 224.642 264.443C225.108 264.739 225.726 264.601 226.022 264.135L230.844 256.536ZM145.218 275.976L230.218 256.976L229.782 255.024L144.782 274.024L145.218 275.976Z" fill="#44774E"/>
<path d="M262.707 255.293C262.317 254.902 261.683 254.902 261.293 255.293L254.929 261.657C254.538 262.047 254.538 262.681 254.929 263.071C255.319 263.462 255.953 263.462 256.343 263.071L262 257.414L267.657 263.071C268.047 263.462 268.681 263.462 269.071 263.071C269.462 262.681 269.462 262.047 269.071 261.657L262.707 255.293ZM263 275V256H261V275H263Z" fill="#44774E"/>
<path d="M219.707 147.293C219.317 146.902 218.683 146.902 218.293 147.293L211.929 153.657C211.538 154.047 211.538 154.681 211.929 155.071C212.319 155.462 212.953 155.462 213.343 155.071L219 149.414L224.657 155.071C225.047 155.462 225.681 155.462 226.071 155.071C226.462 154.681 226.462 154.047 226.071 153.657L219.707 147.293ZM220 167V148H218V167H220Z" fill="#44774E"/>
<path d="M66.2929 102.293C65.9024 102.683 65.9024 103.317 66.2929 103.707L72.6569 110.071C73.0474 110.462 73.6805 110.462 74.0711 110.071C74.4616 109.681 74.4616 109.047 74.0711 108.657L68.4142 103L74.0711 97.3431C74.4616 96.9526 74.4616 96.3195 74.0711 95.9289C73.6805 95.5384 73.0474 95.5384 72.6569 95.9289L66.2929 102.293ZM98 102H67V104H98V102Z" fill="#44774E"/>
</svg>
